# xmcd CD database file
#
# Track frame offsets:
#	225
#	6156
#	19694
#	31707
#	44238
#	56233
#	64173
#	75804
#	86808
#	100426
#	111492
#	122880
#	137257
#	152237
#	160097
#	182279
#
# Disc length: 2666 seconds
#
# Revision: 0
# Processed by: cddbd v1.4PL0 Copyright (c) Steve Scherf et al.
# Submitted via: CDex 1.51
#
DISCID=cc0a6710
DTITLE=Templars - Phase II
DYEAR=1900
DGENRE=Salsa
TTITLE0=Intro
TTITLE1=Pawns In The Game
TTITLE2=City Traffic
TTITLE3=Kids of Today
TTITLE4=You're Free
TTITLE5=Eastern Europe
TTITLE6=Freedom Has Its Price
TTITLE7=Their Plan
TTITLE8=Worth My While
TTITLE9=Make Your Mark
TTITLE10=I Still Remember
TTITLE11=Waiting For The Blood
TTITLE12=Push And Shove
TTITLE13=Don't Do Anything At All
TTITLE14=Land Of The Free
TTITLE15=Hidden
EXTD=
EXTT0=
EXTT1=
EXTT2=
EXTT3=
EXTT4=
EXTT5=
EXTT6=
EXTT7=
EXTT8=
EXTT9=
EXTT10=
EXTT11=
EXTT12=
EXTT13=
EXTT14=
EXTT15=
PLAYORDER=
